<?xml version="1.0" encoding="UTF-8" standalone="no"?>
<!-- Created with Inkscape (http://www.inkscape.org/) -->

<svg
   width="430.14853mm"
   height="347.42773mm"
   viewBox="0 0 430.14853 347.42774"
   version="1.1"
   id="svg5"
   xml:space="preserve"
   inkscape:version="1.2 (dc2aedaf03, 2022-05-15)"
   sodipodi:docname="psyke-python.svg"
   inkscape:export-filename="psyke-python.png"
   inkscape:export-xdpi="36.73"
   inkscape:export-ydpi="36.73"
   xmlns:inkscape="http://www.inkscape.org/namespaces/inkscape"
   xmlns:sodipodi="http://sodipodi.sourceforge.net/DTD/sodipodi-0.dtd"
   xmlns="http://www.w3.org/2000/svg"
   xmlns:svg="http://www.w3.org/2000/svg"><sodipodi:namedview
     id="namedview7"
     pagecolor="#ffffff"
     bordercolor="#666666"
     borderopacity="1.0"
     inkscape:showpageshadow="2"
     inkscape:pageopacity="0.0"
     inkscape:pagecheckerboard="0"
     inkscape:deskcolor="#d1d1d1"
     inkscape:document-units="mm"
     showgrid="false"
     showguides="true"
     inkscape:zoom="0.29249694"
     inkscape:cx="1210.2691"
     inkscape:cy="666.67364"
     inkscape:window-width="1920"
     inkscape:window-height="1127"
     inkscape:window-x="1440"
     inkscape:window-y="0"
     inkscape:window-maximized="1"
     inkscape:current-layer="layer1"><sodipodi:guide
       position="209.12924,168.42286"
       orientation="1,0"
       id="guide1261"
       inkscape:locked="false" /><sodipodi:guide
       position="209.12924,168.42287"
       orientation="0,-1"
       id="guide1263"
       inkscape:locked="false" /></sodipodi:namedview><defs
     id="defs2"><marker
       style="overflow:visible"
       id="Arrow1"
       refX="0"
       refY="0"
       orient="auto-start-reverse"
       inkscape:stockid="Arrow1"
       markerWidth="4.0606604"
       markerHeight="6.7071066"
       viewBox="0 0 4.0606602 6.7071068"
       inkscape:isstock="true"
       inkscape:collect="always"
       preserveAspectRatio="xMidYMid"><path
         style="fill:none;stroke:context-stroke;stroke-width:1;stroke-linecap:butt"
         d="M 3,-3 0,0 3,3"
         id="path5057"
         transform="rotate(180,0.125,0)"
         sodipodi:nodetypes="ccc" /></marker></defs><g
     inkscape:label="Livello 1"
     inkscape:groupmode="layer"
     id="layer1"
     transform="translate(127.13265,-17.69857)"><path
       style="fill:#040404;stroke:none;stroke-width:0.763998;stroke-dasharray:none"
       d="m -40.449264,249.98198 c 0.0092,0.64012 0.01704,1.27173 0.198158,1.89198 0.86216,2.95395 3.612751,3.07479 6.186469,3.07385 1.470593,-4.8e-4 2.99226,0.03 4.202742,-0.94327 1.241692,-0.99861 1.574169,-2.51531 1.708954,-4.02256 2.50537,1.44624 4.622231,2.30012 7.094024,0.1809 1.062931,-0.9111 2.113316,-2.69857 3.560974,-2.96743 1.927443,-0.35801 4.17507,-0.0511 6.134203,-0.0511 H 1.1690471 c 3.653429,0 7.3191505,-0.24759 9.1359309,-4.01996 1.064105,-2.20931 0.795715,-4.71517 0.795715,-7.09403 v -12.29632 c 0,-1.54154 0.685049,-5.75445 -1.8898498,-5.56787 -2.3812284,0.17261 -1.6571675,4.22875 -1.6571675,5.80434 v 12.53278 c 0,1.78344 0.3369676,3.92631 -0.826215,5.43143 -1.6947645,2.193 -4.5250488,1.6626 -6.97721531,1.6626 H -17.748367 l -1.41881,-2.60114 c 1.304363,-0.30197 2.65743,-0.36203 3.694575,-1.32091 1.666621,-1.54058 1.27362,-3.96201 1.271251,-6.00959 -0.0015,-1.1646 0.0069,-2.29965 -0.690725,-3.29541 -0.524723,-0.74961 -1.275025,-1.26557 -2.14665,-1.52711 -0.449995,-0.13479 -1.323744,-0.13668 -1.465627,-0.71366 -0.14519,-0.59094 0.479555,-1.27857 0.686943,-1.79431 0.322539,-0.80282 0.381183,-1.75412 0.211873,-2.60115 -0.252319,-1.26274 -1.166262,-2.18827 -2.037169,-3.07409 -1.700908,-1.72975 -3.548673,-3.46094 -6.145555,-2.56425 -0.765453,0.26413 -1.440095,0.72951 -2.128214,1.14545 -0.410269,-1.28757 -0.665185,-2.7286 -1.710842,-3.67684 -1.525692,-1.3838 -3.722246,-1.05487 -5.619656,-1.0525 -1.15633,0.002 -2.308167,-0.0138 -3.307945,0.65855 -0.707754,0.47625 -1.281893,1.15325 -1.607746,1.94235 -0.189648,0.45898 -0.209275,1.32422 -0.690252,1.59735 -0.536542,0.3048 -1.254221,-0.30127 -1.724562,-0.50417 -0.815578,-0.35185 -1.725739,-0.45236 -2.601138,-0.29392 -2.645129,0.47861 -6.050026,3.99915 -6.050262,6.76794 -2.45e-4,1.44387 0.829528,2.6106 1.557376,3.78349 -1.731424,0.39442 -3.215967,0.50698 -4.307265,2.13081 -0.75882,1.12936 -0.658561,2.48338 -0.658561,3.78087 -2.29e-4,2.55551 0.124617,5.35766 3.073848,6.2184 0.615287,0.17971 1.258003,0.16221 1.891978,0.16624 -0.405784,0.86807 -1.029819,2.25235 -1.954641,2.66806 -1.517656,0.68197 -4.201092,0.16954 -5.848796,0.16954 h -13.951585 c -2.593459,0 -5.584854,0.43983 -6.940736,-2.36491 -0.938594,-1.9414 -0.389761,-4.98402 -0.389761,-7.0938 V 218.53175 162.01597 144.9903 c 0,-2.47665 -0.450483,-5.27508 1.898351,-6.87636 1.52636,-1.04056 3.679772,-0.69061 5.432146,-0.69061 h 11.823371 45.874734 v 13.47866 c 0,2.96656 0.165535,6.04757 2.629054,8.10777 2.2514014,1.88276 5.0109838,1.82387 7.7755245,1.82387 H 7.5536757 v 40.43597 c 0,3.28075 -0.2367041,6.66107 0.017495,9.93141 0.093876,1.20765 0.9844119,2.3616 2.3296748,1.88158 1.4424575,-0.51455 1.1998415,-2.31951 1.1998415,-3.53662 v -10.641 -31.45021 c 0,-4.89015 0.886514,-10.8566 -1.3802593,-15.37039 -2.2277633,-4.43607 -6.6390683,-7.92331 -9.8980706,-11.58692 -1.9967292,-2.24462 -3.9887339,-4.97483 -6.9296847,-6.00989 -1.7075325,-0.60098 -3.6576884,-0.37474 -5.4387564,-0.37474 h -9.222239 -31.68667 -17.262145 c -2.456183,0 -5.58014,-0.53067 -7.803434,0.69682 -4.255971,2.34976 -3.783477,6.97414 -3.783477,11.12656 v 28.37613 52.25935 10.40459 c 0,3.17198 -0.0204,6.20041 2.603788,8.4497 2.435052,2.08707 5.529189,1.71841 8.510193,1.71841 h 17.735075 c 1.015861,0 2.171954,-0.15394 3.074078,0.40601 2.014469,1.25093 3.075971,3.73857 5.675222,3.99324 1.65859,0.16269 2.852753,-0.90544 4.256421,-1.56164 M 7.5536695,157.05017 c -1.4419809,0.39228 -3.0064457,0.23648 -4.4928879,0.23648 h -7.5669603 c -1.6200402,-5.8e-4 -3.2287358,0.008 -4.4560033,-1.21916 -1.343371,-1.34342 -1.219222,-3.17345 -1.219222,-4.92901 v -8.7493 c 0,-1.63002 -0.193674,-3.38489 0.2364659,-4.96582 3.2686905,0.64529 4.9946704,3.07481 7.1403746,5.43876 1.87046488,2.0606 3.76835191,4.10221 5.6551312,6.14815 1.3485742,1.46227 2.8489594,2.92903 3.7489532,4.72936 0.5228364,1.04554 0.6845796,2.18685 0.9541486,3.31054 m -74.4501925,-10.4413 c -1.330372,0.59503 -1.131029,2.56807 0.216846,2.98761 1.848232,0.57528 4.439445,0.12336 6.36712,0.1232 0.780341,-7e-5 1.835701,0.16219 2.530674,-0.27186 1.140721,-0.71237 0.836862,-2.57502 -0.419964,-2.9412 -1.796447,-0.52337 -4.264689,-0.0976 -6.130654,-0.0975 -0.806361,5e-5 -1.808038,-0.1385 -2.564022,0.19974 m 15.378203,0.0721 c -1.142852,0.67271 -0.993643,2.36525 0.213057,2.86907 0.699473,0.29206 1.602773,0.16955 2.34315,0.16962 l 4.492886,-3e-5 c 0.757644,-0.002 1.65717,0.09 2.294216,-0.40606 1.10667,-0.86202 0.626168,-2.44961 -0.646267,-2.80697 -1.816778,-0.51015 -4.258782,-0.0977 -6.140835,-0.0975 -0.799496,7e-5 -1.836404,-0.15198 -2.556207,0.27186 m -15.161357,7.25838 c -1.556202,0.65722 -1.38713,2.80399 0.222507,3.24978 1.756957,0.48658 4.09042,0.0975 5.908139,0.0975 h 12.059857 c 1.524509,0 4.801719,0.61197 6.024967,-0.43622 1.48643,-1.27361 -0.07571,-2.98037 -1.532081,-3.09328 -5.214583,-0.40431 -10.611725,-0.0175 -15.843331,-0.0175 -1.966937,0 -5.011697,-0.57243 -6.840058,0.19974 m 2.820106,20.84588 c 1.258954,-1.06765 1.912317,-2.1178 2.080916,-3.78348 0.105699,-1.04353 -0.162686,-2.31549 0.381186,-3.26585 0.523065,-0.91349 2.126557,-0.94328 2.126557,-2.17267 0,-2.09274 -3.607319,-1.14687 -4.493365,-0.32633 -1.934305,1.79124 -0.257277,4.67662 -1.50299,6.70362 -0.619778,1.00807 -2.359706,1.63778 -2.031966,3.05233 0.316402,1.36559 2.071694,1.84161 2.397791,3.3394 0.5233,2.40416 -0.600403,6.03512 2.933613,6.56482 0.454729,0.0681 0.955096,0.0787 1.411471,0.0192 0.728322,-0.0955 1.419283,-0.52804 1.266048,-1.36773 -0.209275,-1.14616 -1.760974,-1.12795 -2.209313,-2.16534 -1.048019,-2.42497 0.513607,-4.97079 -2.359948,-6.59791 m 12.296321,-0.23647 c -0.759776,0.59803 -1.472015,1.20456 -1.840668,2.12844 -0.58715,1.47154 -0.08914,3.27153 -0.693559,4.70594 -0.43723,1.03739 -2.092979,1.10975 -2.092979,2.38549 0,1.97403 3.468034,1.15278 4.326892,0.36606 1.87164,-1.71439 0.536069,-4.68845 1.580075,-6.74122 0.501787,-0.98631 2.239116,-1.60184 2.118748,-2.8407 -0.140225,-1.4441 -2.143815,-1.9648 -2.397074,-3.55126 -0.396554,-2.48338 0.308832,-5.86961 -2.893177,-6.58161 -0.452837,-0.10074 -0.952494,-0.166 -1.415264,-0.10286 -0.751967,0.10238 -1.455459,0.62095 -1.300809,1.46444 0.199587,1.08988 1.659056,1.17477 2.073588,2.1677 1.011138,2.42238 -0.364627,5.11906 2.534227,6.59958 m 9.022895,-5.94834 c -1.710138,0.76473 -0.826213,2.92084 0.673221,3.25119 2.835014,0.62451 6.320306,0.096 9.221299,0.096 h 18.68095 6.3846265 c 0.9673845,-0.002 2.156349,0.10381 2.9012222,-0.64555 0.8534083,-0.85814 0.561371,-2.27317 -0.5540457,-2.73191 -1.7073032,-0.70183 -4.5352191,-0.16955 -6.367131,-0.16955 h -21.755027 -6.148153 c -0.936657,0 -2.160143,-0.19248 -3.036962,0.19982 m 0.209274,10.64105 c -1.416204,0.58643 -1.561638,2.73545 0.0076,3.22399 0.931217,0.28991 2.092505,0.1232 3.056582,0.1232 h 5.911695 19.626813 6.384627 c 0.9061516,-0.002 2.0170767,0.10948 2.7137081,-0.59614 0.9416141,-0.95391 0.3085939,-2.38382 -0.8387495,-2.77826 -1.8316782,-0.62971 -4.444887,-0.17262 -6.3678366,-0.17262 h -21.282088 -6.148169 c -0.961006,0 -2.156345,-0.17617 -3.064145,0.19983 m -23.619575,10.94963 c -1.538936,0.88344 -0.851284,2.83997 0.674877,3.17907 1.194167,0.26532 2.563785,0.096 3.780877,0.096 h 7.094039 c 1.170983,0 2.957025,0.32065 3.949476,-0.43629 1.30152,-0.99222 0.597326,-2.79576 -0.876346,-3.05965 -3.262311,-0.58455 -7.087408,-0.0511 -10.403631,-0.0511 -1.216155,0 -3.129411,-0.35399 -4.219292,0.27194 m 22.212355,-0.0721 c -1.794552,0.76995 -0.897631,2.95727 0.68883,3.27674 2.932195,0.5907 6.466444,0.0704 9.457765,0.0704 h 19.390347 6.6210999 c 0.9673845,-0.002 2.1563482,0.10381 2.9012215,-0.64556 0.9517821,-0.95698 0.4521254,-2.40842 -0.7803465,-2.77826 -1.9364375,-0.581 -4.5995359,-0.12319 -6.6137609,-0.12319 h -22.227966 -6.384627 c -0.950126,0 -2.158476,-0.18374 -3.052563,0.1998 m -21.537478,10.58052 c -1.73898,0.44385 -2.18449,2.76195 -0.231735,3.31031 1.414075,0.39703 3.260176,0.0974 4.722025,0.0974 h 9.695169 31.450204 10.8775133 c 1.1970047,0 3.2154896,0.38308 4.1325098,-0.57035 1.3350951,-1.38855 -0.382843,-2.80853 -1.7678348,-2.94616 -3.7879693,-0.37621 -7.7795483,-0.0305 -11.5869133,-0.0305 h -32.159601 -9.93165 c -1.652667,0 -3.588866,-0.2717 -5.199687,0.13929 m 28.943879,17.52887 c 0.816762,-0.42328 3.943104,-0.51574 4.432118,0.40081 0.411689,0.7716 0.06311,1.70683 0.605829,2.45998 0.650524,0.90212 2.128207,1.37434 3.141004,1.7307 1.909244,0.67181 3.003613,-2.08825 4.729352,-0.87658 0.866651,0.60843 2.533279,1.9998 2.069806,3.20957 -0.334602,0.87305 -1.26889,1.39563 -1.419994,2.36467 -0.149446,0.95888 0.540568,2.23983 0.966445,3.07055 0.371022,0.7243 0.875644,1.22159 1.695232,1.3715 0.767576,0.14023 1.774223,-0.0974 2.29634,0.64699 0.546711,0.77939 0.461349,2.7636 0.180664,3.63639 -0.44976,1.39848 -2.142868,0.7191 -3.170089,1.27362 -0.982993,0.53063 -1.436068,1.78627 -1.825059,2.77022 -0.331523,0.83875 -0.376919,1.57299 0.107357,2.36468 0.404837,0.66187 1.270066,1.28543 1.269126,2.12821 -0.0015,0.75551 -0.734945,1.39917 -1.227511,1.8844 -0.352334,0.34714 -0.731155,0.74062 -1.178783,0.96597 -1.573932,0.79241 -2.557636,-1.81418 -4.25642,-1.48691 -1.055834,0.20337 -2.733807,0.86169 -3.37747,1.75436 -0.604645,0.83898 -0.170257,1.8629 -0.575559,2.74279 -0.496822,1.07806 -3.533539,1.07238 -4.462388,0.59093 -0.906616,-0.4701 -0.46986,-2.07145 -0.82787,-2.88775 -0.502964,-1.14804 -1.946123,-1.64817 -3.053036,-2.02511 -0.92577,-0.31544 -1.591191,-0.16835 -2.364681,0.42069 -0.543631,0.41405 -1.126296,1.16885 -1.89174,1.08397 -0.748888,-0.0828 -1.397517,-0.88936 -1.888188,-1.38902 -0.350447,-0.35683 -0.760715,-0.73045 -0.992215,-1.18139 -0.547666,-1.06576 0.559477,-1.81465 1.10217,-2.60114 0.551676,-0.79974 0.521644,-1.4907 0.168843,-2.36468 -0.354938,-0.87967 -0.724073,-2.0095 -1.528534,-2.5801 -0.906853,-0.64367 -2.003117,-0.19154 -2.912812,-0.66354 -0.92671,-0.4812 -0.735648,-3.19845 -0.472932,-4.04997 0.503438,-1.6314 3.106241,-0.57534 4.012857,-2.1826 0.509826,-0.90355 1.328719,-2.5503 0.991986,-3.60164 -0.31829,-0.99316 -1.839956,-1.86479 -1.334632,-3.00196 0.416419,-0.93689 2.180479,-2.86432 3.326396,-2.51743 0.879662,0.2665 1.409343,1.17548 2.364679,1.31003 1.027214,0.14495 2.42143,-0.65951 3.293758,-1.1438 0.683391,-0.37928 1.135282,-0.9052 1.326579,-1.67135 0.1608,-0.64343 -0.02032,-1.59308 0.679372,-1.95606 m 0.61198,7.74266 c -1.271014,0.19604 -2.474154,0.62759 -3.547016,1.34455 -6.289089,4.20275 -4.54396,14.19185 2.837619,15.9403 1.037145,0.24592 2.015409,0.3599 3.074076,0.20051 1.43205,-0.21565 2.828153,-0.62544 4.019947,-1.47578 6.067056,-4.32902 4.416037,-13.95633 -2.837603,-15.84122 -1.158224,-0.30101 -2.363969,-0.35067 -3.547023,-0.16836 m 0.236473,3.52762 c 5.588203,-1.02839 8.822368,6.41656 4.019237,9.62471 -0.636328,0.42494 -1.376477,0.67938 -2.127496,0.80897 -6.522017,1.12534 -8.436227,-9.22934 -1.891741,-10.43368 z"
       id="path195" /><path
       style="fill:#030303;stroke:none;stroke-width:0.202141"
       d="m 175.42391,172.04173 c -2.54071,3.49017 -6.24596,6.4481 -9.29849,9.50063 -1.38042,1.38043 -2.91902,3.57891 -4.64924,4.49683 -0.9288,0.49283 -2.14697,-0.49019 -3.03212,-0.78188 -1.74165,-0.57388 -3.67397,-0.65069 -5.45781,-0.2274 -7.78729,1.84776 -10.10695,12.51817 -3.63837,17.37441 2.15629,1.61895 5.01222,2.37456 7.6812,1.8413 0.9063,-0.18111 1.78667,-0.47321 2.62783,-0.85404 0.50638,-0.22923 1.04305,-0.5943 1.61713,-0.38023 0.63704,0.23752 1.14969,0.90701 1.61712,1.37295 l 2.62784,2.62783 6.06422,6.06423 c 1.23812,1.23811 2.60641,2.42266 3.63854,3.84068 l -8.69206,4.50128 -3.63854,1.76509 c -2.07058,-4.11316 -8.42833,-4.72505 -12.12846,-2.75882 -4.58451,2.4358 -6.71951,7.78465 -4.66933,12.66373 3.21681,7.65569 14.44981,7.73028 17.84652,0.20214 0.51948,-1.15119 0.75983,-2.38061 0.76994,-3.63854 0.009,-1.12956 -0.0188,-2.16291 -0.40368,-3.23425 3.13197,-1.49767 6.25768,-3.14896 9.29849,-4.82572 0.94238,-0.5197 2.71293,-1.92034 3.84068,-1.67332 0.80291,0.17586 1.46997,1.09662 2.02141,1.64765 l 4.04282,4.04283 c 0.94279,0.94278 1.89649,1.87627 2.82836,2.82997 0.38447,0.39336 0.9256,0.84252 1.02768,1.41499 0.10107,0.56599 -0.32727,1.13037 -0.55103,1.61712 -0.32686,0.71093 -0.56176,1.45623 -0.71356,2.22355 -0.71416,3.61065 0.62623,7.65731 3.67553,9.81132 4.78366,3.3792 11.77006,2.0016 14.49371,-3.3428 1.24216,-2.43742 1.17565,-4.86999 0.66626,-7.47922 2.00382,-0.60844 3.79702,-1.84656 5.65995,-2.77964 3.36706,-1.68667 6.82367,-3.25912 10.10705,-5.10386 1.64745,-0.9256 3.36363,-1.73255 5.05352,-2.5775 0.71539,-0.35779 1.58398,-0.99191 2.38608,-1.10005 0.6234,-0.0843 1.05235,0.46189 1.46006,0.84717 0.68283,0.64524 1.37395,1.22538 2.21809,1.65048 2.82129,1.42024 6.50733,1.36991 9.2985,-0.0896 5.76344,-3.01352 6.69996,-11.7452 2.19828,-16.29296 -2.39841,-2.42287 -6.00662,-3.37172 -9.27322,-2.43742 -0.91974,0.26298 -1.79664,0.62077 -2.62783,1.09378 -0.48838,0.27774 -1.0192,0.69557 -1.61714,0.55812 -1.02202,-0.2349 -2.04546,-1.46553 -2.82997,-2.11865 -2.01333,-1.67595 -4.02786,-3.35534 -6.06423,-5.00319 -1.42328,-1.1518 -2.84049,-2.31209 -4.24496,-3.48672 -0.43804,-0.36648 -1.35455,-0.91247 -1.35455,-1.5668 0,-0.65433 0.91651,-1.20032 1.35455,-1.5668 l 4.04282,-3.33492 c 2.07861,-1.73032 4.18775,-3.42467 6.26637,-5.155 0.77784,-0.64746 1.8126,-1.89507 2.82997,-2.11541 1.08611,-0.23509 2.76914,1.24519 3.84068,1.56721 3.4457,1.03536 7.31731,0.23024 9.89218,-2.34484 4.42265,-4.42265 3.4835,-12.59035 -2.21082,-15.49229 -2.80794,-1.43096 -6.46305,-1.5191 -9.29848,-0.0928 -0.87507,0.44027 -1.65109,1.03921 -2.36202,1.7087 -0.38124,0.35901 -0.75419,0.87204 -1.3402,0.78916 -0.72791,-0.10329 -1.50999,-0.67475 -2.15987,-0.99958 -1.62906,-0.81463 -3.2565,-1.62239 -4.85139,-2.50171 -3.50148,-1.93085 -7.13679,-3.69416 -10.71347,-5.48247 -1.83929,-0.91967 -3.69837,-2.1683 -5.65995,-2.77963 1.98058,-7.12669 -3.87505,-14.14086 -11.3199,-12.67907 -4.91485,0.965 -8.13132,5.75748 -7.64093,10.65766 0.1037,1.03605 0.37578,2.07211 0.77521,3.03211 0.22499,0.54101 0.72488,1.20578 0.61471,1.81927 -0.16777,0.93508 -1.40225,1.79125 -2.03677,2.4257 l -5.25567,5.25566 c -0.64887,0.64887 -1.48331,1.84555 -2.42569,2.05194 -0.56014,0.12269 -1.13765,-0.24864 -1.61713,-0.48535 -1.23144,-0.60784 -2.42064,-1.28481 -3.63854,-1.9167 -1.81846,-0.94319 -3.62682,-1.9167 -5.4578,-2.83381 -0.74308,-0.37215 -1.93915,-0.73438 -2.41559,-1.45762 -0.27997,-0.4247 -0.096,-0.9604 -0.0511,-1.42479 0.0893,-0.91948 0.0988,-1.91614 -0.0586,-2.82787 -0.66363,-3.84705 -3.54608,-7.00261 -7.37956,-7.83887 -3.82122,-0.83357 -7.83541,0.58647 -10.14047,3.79604 -2.93284,4.08374 -2.02581,10.4422 1.8582,13.6053 3.1006,2.52515 7.60302,2.82513 11.11224,0.98889 0.79624,-0.41662 1.53973,-0.91591 2.22355,-1.49888 0.46677,-0.39761 0.95454,-0.99616 1.61713,-1.02021 1.03112,-0.0376 2.33817,1.06831 3.23426,1.51849 2.83321,1.42367 5.57283,3.15784 8.48992,4.39696 m 19.40554,-22.15886 c 4.8433,-0.90358 6.23989,6.43907 1.41499,7.29824 -4.63611,0.82555 -5.98338,-6.44593 -1.41499,-7.29824 m -41.03463,6.48515 c 1.57124,-0.3758 3.34509,0.12618 4.22915,1.5295 1.29526,2.05604 -0.10816,5.03696 -2.40988,5.59203 -1.25301,0.302 -2.83553,0.0184 -3.68262,-1.02441 -1.59332,-1.96135 -0.66965,-5.49126 1.86335,-6.09712 m 73.3772,14.86515 -0.27674,4.64925 0.69234,3.03009 -3.04344,3.00624 -8.69206,7.32155 -2.4257,2.02889 -1.41498,0.65453 -2.42569,-1.76671 -5.45781,-4.36968 c 0.59207,-1.97815 1.38547,-3.73153 1.17241,-5.8621 -0.5005,-5.00561 -5.15722,-9.22369 -10.26876,-8.76543 -1.71901,0.15422 -3.41255,0.6808 -4.85138,1.64502 -0.79179,0.53062 -1.80735,1.85181 -2.82998,1.77783 -0.75054,-0.0544 -1.56416,-0.64442 -2.22355,-0.97412 -1.55406,-0.77703 -3.14329,-1.50837 -4.64924,-2.37536 0.60561,-1.20556 1.68848,-2.07922 2.62581,-3.03212 1.37112,-1.39395 2.66017,-2.86029 4.04484,-4.24496 0.70082,-0.70082 1.62663,-2.04423 2.62783,-2.29631 0.57449,-0.14464 1.12856,0.27384 1.61713,0.51099 0.76793,0.37272 1.58903,0.66243 2.4257,0.83667 3.55424,0.74025 7.38259,-0.79271 9.50063,-3.70059 l 8.8942,4.38161 9.50063,4.76507 5.45781,2.77964 m 8.8942,-0.5284 c 4.68603,-0.76369 5.87927,6.61022 1.21284,7.34703 -4.87604,0.76995 -6.02925,-6.56191 -1.21284,-7.34703 m -49.72669,6.79477 -0.40429,4.64925 -17.18198,5.65994 -4.04262,1.27814 -1.51608,-0.0138 1.1124,-1.87082 4.85058,-4.85138 6.46851,-6.46851 2.82998,-2.25125 2.42569,0.98827 5.45781,2.8801 m 8.48992,-0.32423 c 4.70019,-0.93914 6.28719,6.20876 1.61713,7.28213 -4.67067,1.07337 -6.31771,-6.34298 -1.61713,-7.28213 m 7.27708,11.03771 h 0.20214 l 5.45781,4.56515 1.73134,1.89204 -1.73134,1.80713 -5.45781,4.26842 h -0.20214 c -3.21283,-2.69474 -7.86956,-3.36545 -11.52204,-1.06347 -1.55528,0.98019 -2.68666,2.34666 -3.63854,3.89345 l -9.70277,-3.16352 -12.93702,-4.3157 v -3.63854 c 4.82651,-2.09054 10.16708,-3.26558 15.16057,-4.9189 1.61369,-0.53425 3.22819,-1.05315 4.85138,-1.55669 0.67354,-0.20881 1.49282,-0.6515 2.21082,-0.60541 0.70709,0.0453 1.08772,0.73539 1.5013,1.21972 0.69739,0.81645 1.47523,1.5858 2.35211,2.20839 3.57528,2.5393 8.33287,1.95208 11.72419,-0.59207 m -48.51385,2.72122 c 1.40225,-0.33555 2.98495,0.019 3.92394,1.14553 1.57415,1.88841 0.76125,5.05009 -1.70041,5.71048 -1.50633,0.40409 -3.31239,0.003 -4.23904,-1.31492 -1.3596,-1.93348 -0.33264,-4.97954 2.01551,-5.54109 m 73.57934,26.58922 -17.18199,8.7424 -6.67065,3.18393 c -2.11824,-2.90396 -5.95326,-4.43943 -9.50063,-3.7006 -0.83667,0.17424 -1.65777,0.46391 -2.4257,0.83666 -0.48877,0.23711 -1.04264,0.65575 -1.61713,0.51101 -1.0012,-0.25207 -1.92701,-1.5955 -2.62783,-2.29632 l -4.4471,-4.4471 c -0.88235,-0.88235 -1.86071,-1.70547 -2.42569,-2.82998 1.63613,-0.94197 3.36665,-1.73012 5.05352,-2.5777 0.62664,-0.31473 1.49605,-1.00342 2.22356,-0.96159 1.15341,0.0666 2.4265,1.84656 3.43639,2.42832 2.81097,1.61936 6.46912,1.55488 9.29849,0.0285 3.10367,-1.67412 5.19967,-5.29508 5.04139,-8.82244 -0.0626,-1.39315 -1.47138,-3.8991 -0.53648,-5.0131 1.38932,-1.65534 3.5304,-2.9638 5.19786,-4.33714 0.59085,-0.48656 1.39214,-1.40852 2.22355,-1.40144 1.26095,0.0105 2.91407,1.98886 3.84068,2.74345 2.76711,2.25347 5.53766,4.50432 8.28778,6.7784 0.99575,0.82332 2.87061,1.83282 3.37677,3.06103 0.37638,0.91347 -0.55124,2.31431 -0.76531,3.22233 -0.378,1.60297 -0.18173,3.2763 0.21852,4.85138 m -41.23678,-10.91561 0.20214,4.4471 -5.86208,2.8803 -2.62784,0.96361 -1.61712,-1.21689 -2.62784,-2.62702 -10.71347,-10.91562 c 1.33041,-1.4538 4.45235,0.27976 6.06423,0.80916 5.67753,1.86476 11.37205,4.2662 17.18198,5.65936 m 9.09635,-2.34908 c 4.7303,-0.8108 5.92637,6.60556 1.21285,7.34842 -4.78165,0.75379 -5.95306,-6.53582 -1.21285,-7.34842 m 40.63035,6.67044 c 4.70443,-0.86132 6.14974,6.20432 1.41499,7.09758 -4.70908,0.88861 -6.10992,-6.23787 -1.41499,-7.09758 m -82.06931,14.36901 c 1.48836,-0.35617 3.17458,0.0726 4.09808,1.33454 1.46231,1.99796 0.35023,5.01512 -2.07668,5.55584 -1.46624,0.32666 -3.1433,-0.0784 -4.03691,-1.34929 -1.35961,-1.93348 -0.33265,-4.97954 2.01551,-5.54109 m 41.64105,6.44871 c 4.55909,-0.55145 5.61042,6.55361 1.0107,7.1572 -0.66807,0.0877 -1.38689,0.0402 -2.02121,-0.19405 -3.56172,-1.31473 -2.59448,-6.52734 1.01051,-6.96315 z"
       id="path193" /><path
       style="fill:none;stroke:#000000;stroke-width:7.63998;stroke-dasharray:none;marker-end:url(#Arrow1)"
       id="path253-3"
       sodipodi:type="arc"
       sodipodi:cx="77.454605"
       sodipodi:cy="200.74576"
       sodipodi:rx="124.85411"
       sodipodi:ry="124.85411"
       sodipodi:start="0.55111221"
       sodipodi:end="2.4368372"
       sodipodi:arc-type="arc"
       d="M 183.82315,266.12375 A 124.85411,124.85411 0 0 1 87.036669,325.23163 124.85411,124.85411 0 0 1 -17.655511,281.63219"
       sodipodi:open="true" /><g
       id="g390"
       transform="translate(66.354309,17.679849)"><path
         style="fill:#000000;stroke-width:0.155893"
         d="m 7.1159572,106.17847 c -1.13466,-0.19677 -2.88648,-0.85659 -3.98743,-1.50184 -1.96677,-1.15269 -3.99930999,-3.48813 -4.8239,-5.542756 -0.81191,-2.02305 -0.80829,-1.98594 -0.87369,-8.95387 l -0.0617,-6.57593 -6.57593,-0.0506 -6.5759302,-0.0506 -1.41066,-0.49207 c -1.8757,-0.65428 -3.14269,-1.41987 -4.5289,-2.73664 -1.67361,-1.58977 -2.76812,-3.46489 -3.35279,-5.74405 -0.31546,-1.22973 -0.31546,-14.96076 0,-16.19048 0.96537,-3.76323 3.67003,-6.86159 7.18781,-8.23412 1.8253,-0.71217 1.87266,-0.71642 8.6804702,-0.77922 l 6.57593,-0.0607 0.0617,-6.57593 c 0.0654,-6.96793 0.0618,-6.93082 0.87369,-8.95387 1.09417001,-2.72634 3.70232,-5.2651 6.56849,-6.39372 1.83148,-0.72119 2.04882,-0.73777 9.6653298,-0.73777 7.7422,0 7.90624,0.0135 9.87495,0.81347 1.36717,0.55553 2.53666,1.34254 3.73621,2.5143 1.34704,1.31583 2.28825,2.81964 2.94207,4.70068 l 0.51477,1.48098 0.0506,6.57593 0.0506,6.57593 6.575925,0.0617 c 6.97263,0.0654 6.92909,0.0612 8.96354,0.8775 1.99819,0.80177 4.19335,2.67569 5.40733,4.61602 0.37551,0.60019 0.91489,1.75769 1.19862,2.57223 l 0.51588,1.48097 v 7.56079 7.56078 l -0.49318,1.41067 c -0.66654,1.90653 -1.45121,3.20056 -2.76837,4.56536 -1.36414,1.41349 -2.83743,2.34576 -4.76691,3.01642 l -1.48098,0.51477 -6.57593,0.0506 -6.575925,0.0506 -0.0506,6.57593 -0.0506,6.57593 -0.49207,1.41066 c -0.65508,1.877986 -1.42006,3.142876 -2.74308,4.535676 -1.34413,1.41503 -2.8447,2.36931 -4.79109,3.04691 l -1.48098,0.51557 -7.0931,0.026 c -3.90121,0.0143 -7.4517898,-0.0362 -7.8901698,-0.11226 z m 14.4202298,-4.67726 c 1.84151,-0.42454 3.91727,-2.028736 4.67892,-3.615986 0.74935,-1.56162 0.79092,-1.99885 0.79288,-8.33932 l 0.002,-5.96289 h -6.42032 c -6.1018,0 -6.45227,-0.0155 -7.0644,-0.3118 -0.7411,-0.35875 -1.32506,-1.25189 -1.32506,-2.02658 0,-0.71739 0.56286,-1.62329 1.24777,-2.00823 0.58673,-0.32976 0.60537,-0.33017 15.376,-0.33397 9.403775,-0.002 15.037645,-0.0612 15.472645,-0.16152 1.84151,-0.42454 3.91728,-2.02874 4.67892,-3.61599 0.75475,-1.57287 0.79104,-1.97157 0.79104,-8.69008 0,-6.7185 -0.0363,-7.11721 -0.79104,-8.69008 -0.76164,-1.58725 -2.83741,-3.19145 -4.67892,-3.61599 -0.39595,-0.0913 -3.19567,-0.15931 -6.64698,-0.16151 l -5.962875,-0.004 v 6.42031 c 0,6.16415 -0.0128,6.44679 -0.32116,7.08374 -0.23317,0.48166 -0.50291,0.75141 -0.98457,0.98457 -0.65458,0.31688 -0.84758,0.32116 -14.48863,0.32116 H 2.0671972 l 0.004,13.36778 c 0.002,8.44561 0.0619,13.61966 0.16152,14.05186 0.57117,2.47759 2.58017,4.531076 5.13501,5.248726 0.88527,0.24867 13.1253098,0.30017 14.1687898,0.0596 z m -2.5667,-7.164626 c -0.73189,-0.36229 -1.31319,-1.25806 -1.31319,-2.02359 0,-1.13554 1.20284,-2.33839 2.33838,-2.33839 1.11958,0 2.33839,1.21881 2.33839,2.33839 0,0.74323 -0.6051,1.67807 -1.30573,2.01723 -0.83122,0.40239 -1.25514,0.4037 -2.05785,0.006 z M -2.6097228,72.418954 c 0,-6.3188 0.009,-6.50254 0.33016,-7.07473 0.18159,-0.32309 0.59451,-0.73602 0.91761,-0.9176 0.58613001,-0.32942 0.61853001,-0.33017 14.4796198,-0.33017 h 13.89217 l -0.002,-13.36777 c -0.002,-14.32078 0.0106,-14.06963 -0.79289,-15.74422 -0.76165,-1.58725 -2.83741,-3.19145 -4.67892,-3.61598 -1.1181,-0.25777 -13.1290998,-0.21016 -14.1288898,0.056 -2.56689,0.68334 -4.59649,2.74331 -5.17491,5.25233 -0.0913,0.39595 -0.15931,3.19567 -0.16152,6.64698 l -0.004,5.96288 h 6.48729 c 6.3806998,0 6.4972398,0.006 7.0930898,0.34048 0.63819,0.35869 1.22941,1.31947 1.22941,1.99791 0,0.74323 -0.60511,1.67806 -1.30573,2.01723 -0.65543,0.31728 -0.84078,0.32118 -15.38500979,0.32301 -15.78259021,0.002 -15.41420021,-0.0151 -17.09803021,0.79288 -1.58725,0.76165 -3.19145,2.83741 -3.61598,4.67892 -0.20944,0.90847 -0.20944,13.08701 0,13.99548 0.57117,2.47758 2.58017,4.53107 5.13501,5.24872 0.50595,0.14212 2.38552,0.20094 6.7423502,0.211 l 6.04083,0.0139 z m 10.66674,-29.83867 c -0.73189,-0.36229 -1.31319,-1.25805 -1.31319,-2.02359 0,-1.13554 1.20284,-2.33838 2.33838,-2.33838 1.1195798,0 2.3383898,1.21881 2.3383898,2.33838 0,0.74324 -0.60511,1.67807 -1.30573,2.01724 -0.8312198,0.40238 -1.2551498,0.40369 -2.0578498,0.006 z"
         id="path204" /><path
         style="fill:#ffffff;stroke:#000000;stroke-width:2.28424"
         d="m 423.28498,230.30307 c -6.96046,-1.35789 -14.40948,-7.35793 -17.89752,-14.41613 l -2.27194,-4.59736 V 184.06194 156.8343 l 2.32854,-4.3575 c 3.8939,-7.28682 9.85801,-12.30038 16.81335,-14.13368 1.81715,-0.47896 19.98861,-0.80593 59.53385,-1.07123 56.62323,-0.37985 56.92721,-0.38843 58.62399,-1.65375 3.98133,-2.96897 5.09092,-8.01357 2.63624,-11.98531 -2.65881,-4.30204 -2.2995,-4.24834 -29.78934,-4.45193 l -24.62812,-0.18238 0.0198,-20.668419 c 0.0109,-11.367628 0.25038,-22.45501 0.53223,-24.638626 1.03086,-7.986557 6.65141,-15.599889 14.29439,-19.362518 5.39755,-2.657204 10.78546,-3.073525 36.82735,-2.845629 l 21.75736,0.190401 4.10223,1.943087 c 5.23338,2.478874 10.8553,7.778329 13.2243,12.465777 2.64362,5.230815 2.8989,10.764971 2.91007,63.088917 l 0.01,46.07048 -53.03357,0.16391 -53.03356,0.1639 -1.88969,1.34794 c -3.82545,2.7287 -3.85185,2.9324 -3.85185,29.71742 v 24.2346 l -22.51283,-0.0695 c -12.38205,-0.0382 -23.49934,-0.26196 -24.70509,-0.49719 z M 518.60809,94.339982 c 8.12421,-3.689613 5.94472,-15.81397 -3.02446,-16.824927 -3.20417,-0.361157 -5.72921,0.857471 -8.03176,3.876269 -3.31689,4.348664 -1.64004,10.524147 3.55245,13.082904 2.60207,1.282252 4.45787,1.249051 7.50377,-0.134246 z"
         id="path383"
         transform="matrix(0.26458333,0,0,0.26458333,-127.13265,17.69857)" /><path
         style="fill:#ffffff;stroke:#000000;stroke-width:2.28424"
         d="m 519.75914,316.72657 c -11.36552,-0.33484 -11.52512,-0.35823 -15.59375,-2.28535 -5.24639,-2.48497 -10.74116,-7.86541 -12.94202,-12.67273 -1.09694,-2.39603 -1.74158,-5.11088 -2.0515,-8.63979 -0.24857,-2.83023 -0.47126,-26.42729 -0.49489,-52.43791 l -0.043,-47.29204 49.10515,-0.0265 c 27.00783,-0.0146 51.09977,-0.25758 53.53763,-0.53996 5.08765,-0.58931 7.52372,-2.30988 8.56195,-6.04723 0.34638,-1.24685 0.5986,-12.11208 0.60055,-25.87122 l 0.003,-23.72156 17.07348,0.0493 c 25.29403,0.073 30.78396,0.48423 35.22139,2.63856 5.19753,2.52335 11.75629,9.22824 13.62872,13.93239 1.42332,3.57582 1.44616,3.96206 1.64298,27.78633 0.13372,16.18715 -0.0268,25.46036 -0.48656,28.10022 -1.3944,8.00726 -6.83746,14.87688 -14.9548,18.87426 l -4.0498,1.99432 -57.73139,0.30219 -57.7314,0.30218 -2.22351,1.38263 c -4.64974,2.89131 -5.80224,8.91784 -2.4641,12.885 3.03279,3.60426 2.67787,3.56132 29.43682,3.56132 h 24.50704 l -0.0187,20.39753 c -0.0103,11.21863 -0.28108,22.43727 -0.60182,24.9303 -1.12694,8.75925 -5.90646,15.31186 -14.5357,19.92808 -3.81088,2.03863 -4.05746,2.08425 -13.55144,2.50734 -10.64728,0.47448 -16.69184,0.46777 -33.84478,-0.0376 z m 41.20545,-27.3208 c 1.06646,-0.6474 2.50648,-2.37511 3.23648,-3.88309 4.3074,-8.89791 -8.05626,-16.80749 -14.73554,-9.42698 -3.16476,3.49703 -3.03904,8.53499 0.29894,11.97891 3.26912,3.37288 7.0889,3.82687 11.20012,1.33116 z"
         id="path385"
         transform="matrix(0.26458333,0,0,0.26458333,-127.13265,17.69857)" /></g></g></svg>
